<?xml version="1.0" encoding="UTF-8" standalone="no"?>
<!DOCTYPE svg PUBLIC "-//W3C//DTD SVG 1.1//EN"
 "http://www.w3.org/Graphics/SVG/1.1/DTD/svg11.dtd">
<!-- Generated by graphviz version 2.40.1 (20161225.0304)
 -->
<!-- Title: cards Pages: 1 -->
<svg width="662pt" height="554pt"
 viewBox="0.00 0.00 662.00 554.00" xmlns="http://www.w3.org/2000/svg" xmlns:xlink="http://www.w3.org/1999/xlink">
<g id="graph0" class="graph" transform="scale(1 1) rotate(0) translate(4 550)">
<title>cards</title>
<polygon fill="#ffffff" stroke="transparent" points="-4,4 -4,-550 658,-550 658,4 -4,4"/>
<!-- cards -->
<g id="node1" class="node">
<title>cards</title>
<polygon fill="#efefef" stroke="transparent" points="46,-454 46,-500 414,-500 414,-454 46,-454"/>
<polygon fill="none" stroke="#000000" points="46,-454 46,-500 414,-500 414,-454 46,-454"/>
<text text-anchor="start" x="159.3708" y="-477.8" font-family="Arial Bold" font-size="18.00" fill="#000000">cards</text>
<text text-anchor="start" x="203.3754" y="-477.8" font-family="Arial" font-size="14.00" fill="#000000"> </text>
<text text-anchor="start" x="207.266" y="-477.8" font-family="Arial" font-size="14.00" fill="#666666">[BASE TABLE]</text>
<text text-anchor="start" x="169.4661" y="-463.4" font-family="Arial" font-size="14.00" fill="#333333">デモ用のサンプル</text>
<polygon fill="none" stroke="#000000" points="46,-424 46,-454 414,-454 414,-424 46,-424"/>
<text text-anchor="start" x="53" y="-435.4" font-family="Arial" font-size="14.00" fill="#000000">id </text>
<text text-anchor="start" x="67.7798" y="-435.4" font-family="Arial" font-size="14.00" fill="#666666">[int(11) unsigned]</text>
<text text-anchor="start" x="175.92" y="-435.4" font-family="Arial" font-size="14.00" fill="#000000"> 識別子</text>
<polygon fill="none" stroke="#000000" points="46,-394 46,-424 414,-424 414,-394 46,-394"/>
<text text-anchor="start" x="52.6578" y="-405.4" font-family="Arial" font-size="14.00" fill="#000000">user_id </text>
<text text-anchor="start" x="102.446" y="-405.4" font-family="Arial" font-size="14.00" fill="#666666">[int(11) unsigned]</text>
<text text-anchor="start" x="210.5862" y="-405.4" font-family="Arial" font-size="14.00" fill="#000000"> カードユーザーの識別子</text>
<polygon fill="none" stroke="#000000" points="46,-364 46,-394 414,-394 414,-364 46,-364"/>
<text text-anchor="start" x="53" y="-375.4" font-family="Arial" font-size="14.00" fill="#000000">created_at </text>
<text text-anchor="start" x="123.028" y="-375.4" font-family="Arial" font-size="14.00" fill="#666666">[datetime(6)]</text>
<text text-anchor="start" x="201.5918" y="-375.4" font-family="Arial" font-size="14.00" fill="#000000"> レコード作成日時</text>
<polygon fill="none" stroke="#000000" points="46,-334 46,-364 414,-364 414,-334 46,-334"/>
<text text-anchor="start" x="53" y="-345.4" font-family="Arial" font-size="14.00" fill="#000000">modified_at </text>
<text text-anchor="start" x="129.2412" y="-345.4" font-family="Arial" font-size="14.00" fill="#666666">[datetime(6)]</text>
<text text-anchor="start" x="207.805" y="-345.4" font-family="Arial" font-size="14.00" fill="#000000"> レコード修正日時</text>
<polygon fill="none" stroke="#000000" stroke-width="3" points="44.5,-332.5 44.5,-501.5 415.5,-501.5 415.5,-332.5 44.5,-332.5"/>
</g>
<!-- users -->
<g id="node2" class="node">
<title>users</title>
<polygon fill="#efefef" stroke="transparent" points="79,-163 79,-209 381,-209 381,-163 79,-163"/>
<polygon fill="none" stroke="#000000" points="79,-163 79,-209 381,-209 381,-163 79,-163"/>
<text text-anchor="start" x="159.3708" y="-186.8" font-family="Arial Bold" font-size="18.00" fill="#000000">users</text>
<text text-anchor="start" x="203.3754" y="-186.8" font-family="Arial" font-size="14.00" fill="#000000"> </text>
<text text-anchor="start" x="207.266" y="-186.8" font-family="Arial" font-size="14.00" fill="#666666">[BASE TABLE]</text>
<text text-anchor="start" x="136.5458" y="-172.4" font-family="Arial" font-size="14.00" fill="#333333">デモ用のサンプルテーブル</text>
<polygon fill="none" stroke="#000000" points="79,-133 79,-163 381,-163 381,-133 79,-133"/>
<text text-anchor="start" x="86" y="-144.4" font-family="Arial" font-size="14.00" fill="#000000">id </text>
<text text-anchor="start" x="100.7798" y="-144.4" font-family="Arial" font-size="14.00" fill="#666666">[int(11) unsigned]</text>
<text text-anchor="start" x="208.92" y="-144.4" font-family="Arial" font-size="14.00" fill="#000000"> 識別子</text>
<polygon fill="none" stroke="#000000" points="79,-103 79,-133 381,-133 381,-103 79,-103"/>
<text text-anchor="start" x="86" y="-114.4" font-family="Arial" font-size="14.00" fill="#000000">name </text>
<text text-anchor="start" x="124.899" y="-114.4" font-family="Arial" font-size="14.00" fill="#666666">[varchar(12)]</text>
<text text-anchor="start" x="204.2356" y="-114.4" font-family="Arial" font-size="14.00" fill="#000000"> 名前</text>
<polygon fill="none" stroke="#000000" points="79,-73 79,-103 381,-103 381,-73 79,-73"/>
<text text-anchor="start" x="86" y="-84.4" font-family="Arial" font-size="14.00" fill="#000000">created_at </text>
<text text-anchor="start" x="156.028" y="-84.4" font-family="Arial" font-size="14.00" fill="#666666">[datetime(6)]</text>
<text text-anchor="start" x="234.5918" y="-84.4" font-family="Arial" font-size="14.00" fill="#000000"> レコード作成日時</text>
<polygon fill="none" stroke="#000000" points="79,-43 79,-73 381,-73 381,-43 79,-43"/>
<text text-anchor="start" x="85.8406" y="-54.4" font-family="Arial" font-size="14.00" fill="#000000">modified_at </text>
<text text-anchor="start" x="162.0818" y="-54.4" font-family="Arial" font-size="14.00" fill="#666666">[datetime(6)]</text>
<text text-anchor="start" x="240.6456" y="-54.4" font-family="Arial" font-size="14.00" fill="#000000"> レコード修正日時</text>
</g>
<!-- cards&#45;&gt;users -->
<g id="edge1" class="edge">
<title>cards:user_id&#45;&gt;users:id</title>
<path fill="none" stroke="#000000" d="M424.2087,-408.2969C528.8486,-393.4365 494.3838,-148 381,-148"/>
<polygon fill="#000000" stroke="#000000" points="423.9764,-408.3128 413.6908,-404.5106 418.9882,-408.6564 414,-409 414,-409 414,-409 418.9882,-408.6564 414.3092,-413.4894 423.9764,-408.3128 423.9764,-408.3128"/>
<text text-anchor="start" x="420.945" y="-419" font-family="Arial" font-size="10.00" fill="#000000">FOREIGN KEY (user_id) REFERENCES users (id)</text>
</g>
</g>
</svg>
