<?xml version="1.0" encoding="UTF-8" standalone="no"?>
<!DOCTYPE svg PUBLIC "-//W3C//DTD SVG 1.1//EN"
 "http://www.w3.org/Graphics/SVG/1.1/DTD/svg11.dtd">
<!-- Generated by graphviz version 2.40.1 (20161225.0304)
 -->
<!-- Title: sample Pages: 1 -->
<svg width="659pt" height="578pt"
 viewBox="0.00 0.00 659.00 578.00" xmlns="http://www.w3.org/2000/svg" xmlns:xlink="http://www.w3.org/1999/xlink">
<g id="graph0" class="graph" transform="scale(1 1) rotate(0) translate(4 574)">
<title>sample</title>
<polygon fill="#ffffff" stroke="transparent" points="-4,4 -4,-574 655,-574 655,4 -4,4"/>
<!-- cards -->
<g id="node1" class="node">
<title>cards</title>
<polygon fill="#efefef" stroke="transparent" points="43,-481 43,-527 411,-527 411,-481 43,-481"/>
<polygon fill="none" stroke="#000000" points="43,-481 43,-527 411,-527 411,-481 43,-481"/>
<text text-anchor="start" x="156.3708" y="-504.8" font-family="Arial Bold" font-size="18.00" fill="#000000">cards</text>
<text text-anchor="start" x="200.3754" y="-504.8" font-family="Arial" font-size="14.00" fill="#000000"> </text>
<text text-anchor="start" x="204.266" y="-504.8" font-family="Arial" font-size="14.00" fill="#666666">[BASE TABLE]</text>
<text text-anchor="start" x="166.4661" y="-490.4" font-family="Arial" font-size="14.00" fill="#333333">デモ用のサンプル</text>
<polygon fill="none" stroke="#000000" points="43,-451 43,-481 411,-481 411,-451 43,-451"/>
<text text-anchor="start" x="50" y="-462.4" font-family="Arial" font-size="14.00" fill="#000000">id </text>
<text text-anchor="start" x="64.7798" y="-462.4" font-family="Arial" font-size="14.00" fill="#666666">[int(11) unsigned]</text>
<text text-anchor="start" x="172.92" y="-462.4" font-family="Arial" font-size="14.00" fill="#000000"> 識別子</text>
<polygon fill="none" stroke="#000000" points="43,-421 43,-451 411,-451 411,-421 43,-421"/>
<text text-anchor="start" x="49.6578" y="-432.4" font-family="Arial" font-size="14.00" fill="#000000">user_id </text>
<text text-anchor="start" x="99.446" y="-432.4" font-family="Arial" font-size="14.00" fill="#666666">[int(11) unsigned]</text>
<text text-anchor="start" x="207.5862" y="-432.4" font-family="Arial" font-size="14.00" fill="#000000"> カードユーザーの識別子</text>
<polygon fill="none" stroke="#000000" points="43,-391 43,-421 411,-421 411,-391 43,-391"/>
<text text-anchor="start" x="50" y="-402.4" font-family="Arial" font-size="14.00" fill="#000000">status </text>
<text text-anchor="start" x="91.237" y="-402.4" font-family="Arial" font-size="14.00" fill="#666666">[varchar(12)]</text>
<text text-anchor="start" x="170.5736" y="-402.4" font-family="Arial" font-size="14.00" fill="#000000"> カードの状態</text>
<polygon fill="none" stroke="#000000" points="43,-361 43,-391 411,-391 411,-361 43,-361"/>
<text text-anchor="start" x="50" y="-372.4" font-family="Arial" font-size="14.00" fill="#000000">created_at </text>
<text text-anchor="start" x="120.028" y="-372.4" font-family="Arial" font-size="14.00" fill="#666666">[datetime(6)]</text>
<text text-anchor="start" x="198.5918" y="-372.4" font-family="Arial" font-size="14.00" fill="#000000"> レコード作成日時</text>
<polygon fill="none" stroke="#000000" points="43,-331 43,-361 411,-361 411,-331 43,-331"/>
<text text-anchor="start" x="50" y="-342.4" font-family="Arial" font-size="14.00" fill="#000000">modified_at </text>
<text text-anchor="start" x="126.2412" y="-342.4" font-family="Arial" font-size="14.00" fill="#666666">[datetime(6)]</text>
<text text-anchor="start" x="204.805" y="-342.4" font-family="Arial" font-size="14.00" fill="#000000"> レコード修正日時</text>
</g>
<!-- users -->
<g id="node2" class="node">
<title>users</title>
<polygon fill="#efefef" stroke="transparent" points="76,-163 76,-209 378,-209 378,-163 76,-163"/>
<polygon fill="none" stroke="#000000" points="76,-163 76,-209 378,-209 378,-163 76,-163"/>
<text text-anchor="start" x="156.3708" y="-186.8" font-family="Arial Bold" font-size="18.00" fill="#000000">users</text>
<text text-anchor="start" x="200.3754" y="-186.8" font-family="Arial" font-size="14.00" fill="#000000"> </text>
<text text-anchor="start" x="204.266" y="-186.8" font-family="Arial" font-size="14.00" fill="#666666">[BASE TABLE]</text>
<text text-anchor="start" x="133.5458" y="-172.4" font-family="Arial" font-size="14.00" fill="#333333">デモ用のサンプルテーブル</text>
<polygon fill="none" stroke="#000000" points="76,-133 76,-163 378,-163 378,-133 76,-133"/>
<text text-anchor="start" x="83" y="-144.4" font-family="Arial" font-size="14.00" fill="#000000">id </text>
<text text-anchor="start" x="97.7798" y="-144.4" font-family="Arial" font-size="14.00" fill="#666666">[int(11) unsigned]</text>
<text text-anchor="start" x="205.92" y="-144.4" font-family="Arial" font-size="14.00" fill="#000000"> 識別子</text>
<polygon fill="none" stroke="#000000" points="76,-103 76,-133 378,-133 378,-103 76,-103"/>
<text text-anchor="start" x="83" y="-114.4" font-family="Arial" font-size="14.00" fill="#000000">name </text>
<text text-anchor="start" x="121.899" y="-114.4" font-family="Arial" font-size="14.00" fill="#666666">[varchar(12)]</text>
<text text-anchor="start" x="201.2356" y="-114.4" font-family="Arial" font-size="14.00" fill="#000000"> 名前</text>
<polygon fill="none" stroke="#000000" points="76,-73 76,-103 378,-103 378,-73 76,-73"/>
<text text-anchor="start" x="83" y="-84.4" font-family="Arial" font-size="14.00" fill="#000000">created_at </text>
<text text-anchor="start" x="153.028" y="-84.4" font-family="Arial" font-size="14.00" fill="#666666">[datetime(6)]</text>
<text text-anchor="start" x="231.5918" y="-84.4" font-family="Arial" font-size="14.00" fill="#000000"> レコード作成日時</text>
<polygon fill="none" stroke="#000000" points="76,-43 76,-73 378,-73 378,-43 76,-43"/>
<text text-anchor="start" x="82.8406" y="-54.4" font-family="Arial" font-size="14.00" fill="#000000">modified_at </text>
<text text-anchor="start" x="159.0818" y="-54.4" font-family="Arial" font-size="14.00" fill="#666666">[datetime(6)]</text>
<text text-anchor="start" x="237.6456" y="-54.4" font-family="Arial" font-size="14.00" fill="#000000"> レコード修正日時</text>
</g>
<!-- cards&#45;&gt;users -->
<g id="edge1" class="edge">
<title>cards:user_id&#45;&gt;users:id</title>
<path fill="none" stroke="#000000" d="M420.7054,-433.5102C471.7154,-405.3613 438.8959,-148 378,-148"/>
<polygon fill="#000000" stroke="#000000" points="420.6864,-433.515 409.8818,-431.6411 415.8432,-434.7575 411,-436 411,-436 411,-436 415.8432,-434.7575 412.1182,-440.3589 420.6864,-433.515 420.6864,-433.515"/>
<text text-anchor="start" x="417.945" y="-446" font-family="Arial" font-size="10.00" fill="#000000">FOREIGN KEY (user_id) REFERENCES users (id)</text>
</g>
</g>
</svg>
