<?xml version="1.0" encoding="UTF-8" standalone="no"?>
<!DOCTYPE svg PUBLIC "-//W3C//DTD SVG 1.1//EN"
 "http://www.w3.org/Graphics/SVG/1.1/DTD/svg11.dtd">
<!-- Generated by graphviz version 2.40.1 (20161225.0304)
 -->
<!-- Title: users Pages: 1 -->
<svg width="659pt" height="554pt"
 viewBox="0.00 0.00 659.00 554.00" xmlns="http://www.w3.org/2000/svg" xmlns:xlink="http://www.w3.org/1999/xlink">
<g id="graph0" class="graph" transform="scale(1 1) rotate(0) translate(4 550)">
<title>users</title>
<polygon fill="#ffffff" stroke="transparent" points="-4,4 -4,-550 655,-550 655,4 -4,4"/>
<!-- users -->
<g id="node1" class="node">
<title>users</title>
<polygon fill="#efefef" stroke="transparent" points="76,-166 76,-212 378,-212 378,-166 76,-166"/>
<polygon fill="none" stroke="#000000" points="76,-166 76,-212 378,-212 378,-166 76,-166"/>
<text text-anchor="start" x="156.3708" y="-189.8" font-family="Arial Bold" font-size="18.00" fill="#000000">users</text>
<text text-anchor="start" x="200.3754" y="-189.8" font-family="Arial" font-size="14.00" fill="#000000"> </text>
<text text-anchor="start" x="204.266" y="-189.8" font-family="Arial" font-size="14.00" fill="#666666">[BASE TABLE]</text>
<text text-anchor="start" x="133.5458" y="-175.4" font-family="Arial" font-size="14.00" fill="#333333">デモ用のサンプルテーブル</text>
<polygon fill="none" stroke="#000000" points="76,-136 76,-166 378,-166 378,-136 76,-136"/>
<text text-anchor="start" x="83" y="-147.4" font-family="Arial" font-size="14.00" fill="#000000">id </text>
<text text-anchor="start" x="97.7798" y="-147.4" font-family="Arial" font-size="14.00" fill="#666666">[int(11) unsigned]</text>
<text text-anchor="start" x="205.92" y="-147.4" font-family="Arial" font-size="14.00" fill="#000000"> 識別子</text>
<polygon fill="none" stroke="#000000" points="76,-106 76,-136 378,-136 378,-106 76,-106"/>
<text text-anchor="start" x="83" y="-117.4" font-family="Arial" font-size="14.00" fill="#000000">name </text>
<text text-anchor="start" x="121.899" y="-117.4" font-family="Arial" font-size="14.00" fill="#666666">[varchar(12)]</text>
<text text-anchor="start" x="201.2356" y="-117.4" font-family="Arial" font-size="14.00" fill="#000000"> 名前</text>
<polygon fill="none" stroke="#000000" points="76,-76 76,-106 378,-106 378,-76 76,-76"/>
<text text-anchor="start" x="83" y="-87.4" font-family="Arial" font-size="14.00" fill="#000000">created_at </text>
<text text-anchor="start" x="153.028" y="-87.4" font-family="Arial" font-size="14.00" fill="#666666">[datetime(6)]</text>
<text text-anchor="start" x="231.5918" y="-87.4" font-family="Arial" font-size="14.00" fill="#000000"> レコード作成日時</text>
<polygon fill="none" stroke="#000000" points="76,-46 76,-76 378,-76 378,-46 76,-46"/>
<text text-anchor="start" x="82.8406" y="-57.4" font-family="Arial" font-size="14.00" fill="#000000">modified_at </text>
<text text-anchor="start" x="159.0818" y="-57.4" font-family="Arial" font-size="14.00" fill="#666666">[datetime(6)]</text>
<text text-anchor="start" x="237.6456" y="-57.4" font-family="Arial" font-size="14.00" fill="#000000"> レコード修正日時</text>
<polygon fill="none" stroke="#000000" stroke-width="3" points="74.5,-44.5 74.5,-213.5 379.5,-213.5 379.5,-44.5 74.5,-44.5"/>
</g>
<!-- cards -->
<g id="node2" class="node">
<title>cards</title>
<polygon fill="#efefef" stroke="transparent" points="43,-457 43,-503 411,-503 411,-457 43,-457"/>
<polygon fill="none" stroke="#000000" points="43,-457 43,-503 411,-503 411,-457 43,-457"/>
<text text-anchor="start" x="156.3708" y="-480.8" font-family="Arial Bold" font-size="18.00" fill="#000000">cards</text>
<text text-anchor="start" x="200.3754" y="-480.8" font-family="Arial" font-size="14.00" fill="#000000"> </text>
<text text-anchor="start" x="204.266" y="-480.8" font-family="Arial" font-size="14.00" fill="#666666">[BASE TABLE]</text>
<text text-anchor="start" x="166.4661" y="-466.4" font-family="Arial" font-size="14.00" fill="#333333">デモ用のサンプル</text>
<polygon fill="none" stroke="#000000" points="43,-427 43,-457 411,-457 411,-427 43,-427"/>
<text text-anchor="start" x="50" y="-438.4" font-family="Arial" font-size="14.00" fill="#000000">id </text>
<text text-anchor="start" x="64.7798" y="-438.4" font-family="Arial" font-size="14.00" fill="#666666">[int(11) unsigned]</text>
<text text-anchor="start" x="172.92" y="-438.4" font-family="Arial" font-size="14.00" fill="#000000"> 識別子</text>
<polygon fill="none" stroke="#000000" points="43,-397 43,-427 411,-427 411,-397 43,-397"/>
<text text-anchor="start" x="49.6578" y="-408.4" font-family="Arial" font-size="14.00" fill="#000000">user_id </text>
<text text-anchor="start" x="99.446" y="-408.4" font-family="Arial" font-size="14.00" fill="#666666">[int(11) unsigned]</text>
<text text-anchor="start" x="207.5862" y="-408.4" font-family="Arial" font-size="14.00" fill="#000000"> カードユーザーの識別子</text>
<polygon fill="none" stroke="#000000" points="43,-367 43,-397 411,-397 411,-367 43,-367"/>
<text text-anchor="start" x="50" y="-378.4" font-family="Arial" font-size="14.00" fill="#000000">created_at </text>
<text text-anchor="start" x="120.028" y="-378.4" font-family="Arial" font-size="14.00" fill="#666666">[datetime(6)]</text>
<text text-anchor="start" x="198.5918" y="-378.4" font-family="Arial" font-size="14.00" fill="#000000"> レコード作成日時</text>
<polygon fill="none" stroke="#000000" points="43,-337 43,-367 411,-367 411,-337 43,-337"/>
<text text-anchor="start" x="50" y="-348.4" font-family="Arial" font-size="14.00" fill="#000000">modified_at </text>
<text text-anchor="start" x="126.2412" y="-348.4" font-family="Arial" font-size="14.00" fill="#666666">[datetime(6)]</text>
<text text-anchor="start" x="204.805" y="-348.4" font-family="Arial" font-size="14.00" fill="#000000"> レコード修正日時</text>
</g>
<!-- cards&#45;&gt;users -->
<g id="edge1" class="edge">
<title>cards:user_id&#45;&gt;users:id</title>
<path fill="none" stroke="#000000" d="M421.2087,-411.2969C525.8486,-396.4365 491.3838,-151 378,-151"/>
<polygon fill="#000000" stroke="#000000" points="420.9764,-411.3128 410.6908,-407.5106 415.9882,-411.6564 411,-412 411,-412 411,-412 415.9882,-411.6564 411.3092,-416.4894 420.9764,-411.3128 420.9764,-411.3128"/>
<text text-anchor="start" x="417.945" y="-422" font-family="Arial" font-size="10.00" fill="#000000">FOREIGN KEY (user_id) REFERENCES users (id)</text>
</g>
</g>
</svg>
